<svg width="100" height="100" xmlns="http://www.w3.org/2000/svg">
  <!-- Medical cross pattern -->
  <defs>
    <pattern id="medical-cross" patternUnits="userSpaceOnUse" width="30" height="30">
      <rect width="30" height="30" fill="none"/>
      <path d="M13,8 h4 v5 h5 v4 h-5 v5 h-4 v-5 h-5 v-4 h5 Z" fill="#000"/>
    </pattern>
    
    <pattern id="stethoscope" patternUnits="userSpaceOnUse" width="40" height="40">
      <rect width="40" height="40" fill="none"/>
      <path d="M20,12 C16,12 14,15 14,18 L14,24 C14,26 12,28 10,28 C8,28 6,26 6,24 C6,22 8,20 10,20 L10,16 C6,16 2,20 2,24 C2,28 6,32 10,32 C14,32 18,28 18,24 L18,18 C18,17 19,16 20,16 C21,16 22,17 22,18 L22,24 C22,28 26,32 30,32 C34,32 38,28 38,24 C38,20 34,16 30,16 L30,20 C32,20 34,22 34,24 C34,26 32,28 30,28 C28,28 26,26 26,24 L26,18 C26,15 24,12 20,12 Z" fill="#000" fill-opacity="0.3"/>
    </pattern>
    
    <pattern id="heartbeat" patternUnits="userSpaceOnUse" width="50" height="20">
      <rect width="50" height="20" fill="none"/>
      <path d="M0,10 L5,10 L10,5 L15,15 L20,5 L25,15 L30,5 L35,10 L50,10" stroke="#000" stroke-width="1" fill="none" stroke-opacity="0.3"/>
    </pattern>
  </defs>
  
  <!-- Apply patterns to fill the SVG -->
  <rect width="100" height="100" fill="url(#medical-cross)"/>
  <rect width="100" height="100" fill="url(#stethoscope)"/>
  <rect width="100" height="100" fill="url(#heartbeat)"/>
</svg>